
<global>
amp_veltrack=0
ampeg_attack=0.01
ampeg_release=0.45
xf_cccurve=gain
xfin_hicc1=127
xfout_hicc1=127
xfout_locc1=127
</global>

<group>
group_label=MF

<region>
hikey=A5
hivel=127
lokey=G#5
loop_end=275427
loop_mode=loop_continuous
loop_start=79295
loop_xfade=23765
lovel=1
offset=956
pitch_keycenter=G#5
sample=Soprano_sustain_MF_G#4.opus
tune=-6
</region>

<region>
hikey=A4
hivel=127
lokey=G#4
loop_end=275424
loop_mode=loop_continuous
loop_start=79295
loop_xfade=23765
lovel=1
offset=909
pitch_keycenter=G#4
sample=Soprano_sustain_MF_G#3.opus
tune=+1
</region>

<region>
hikey=A3
hivel=127
lokey=G#3
loop_end=271710
loop_mode=loop_continuous
loop_start=78225
loop_xfade=23445
lovel=1
pitch_keycenter=G#3
sample=Soprano_sustain_MF_G#2.opus
tune=-7
</region>

<region>
hikey=G5
hivel=127
lokey=F#5
loop_end=274958
loop_mode=loop_continuous
loop_start=79160
loop_xfade=23725
lovel=1
offset=933
pitch_keycenter=F#5
sample=Soprano_sustain_MF_F#4.opus
</region>

<region>
hikey=G4
hivel=127
lokey=F#4
loop_end=274911
loop_mode=loop_continuous
loop_start=79147
loop_xfade=23721
lovel=1
offset=1728
pitch_keycenter=F#4
sample=Soprano_sustain_MF_F#3.opus
tune=+3
</region>

<region>
hikey=F5
hivel=127
lokey=E5
loop_end=274452
loop_mode=loop_continuous
loop_start=79015
loop_xfade=23681
lovel=1
offset=827
pitch_keycenter=E5
sample=Soprano_sustain_MF_E4.opus
tune=+18
</region>

<region>
hikey=F4
hivel=127
lokey=E4
loop_end=272528
loop_mode=loop_continuous
loop_start=78461
loop_xfade=23515
lovel=1
offset=1027
pitch_keycenter=E4
sample=Soprano_sustain_MF_E3.opus
tune=+12
</region>

<region>
hikey=F6
hivel=127
lokey=D6
loop_end=271366
loop_mode=loop_continuous
loop_start=78126
loop_xfade=23415
lovel=1
offset=1433
pitch_keycenter=D6
sample=Soprano_sustain_MF_D5.opus
tune=-23
</region>

<region>
hikey=D#5
hivel=127
lokey=D5
loop_end=274841
loop_mode=loop_continuous
loop_start=79127
loop_xfade=23715
lovel=1
offset=975
pitch_keycenter=D5
sample=Soprano_sustain_MF_D4.opus
tune=-2
</region>

<region>
hikey=D#4
hivel=127
lokey=D4
loop_end=277481
loop_mode=loop_continuous
loop_start=79887
loop_xfade=23943
lovel=1
offset=3384
pitch_keycenter=D4
sample=Soprano_sustain_MF_D3.opus
tune=+16
</region>

<region>
hikey=C#6
hivel=127
lokey=C6
loop_end=274200
loop_mode=loop_continuous
loop_start=78942
loop_xfade=23659
lovel=1
offset=1568
pitch_keycenter=C6
sample=Soprano_sustain_MF_C5.opus
tune=-17
</region>

<region>
hikey=C#5
hivel=127
lokey=C5
loop_end=275852
loop_mode=loop_continuous
loop_start=79418
loop_xfade=23802
lovel=1
offset=1241
pitch_keycenter=C5
sample=Soprano_sustain_MF_C4.opus
tune=-8
</region>

<region>
hikey=C#4
hivel=127
lokey=C4
loop_end=277338
loop_mode=loop_continuous
loop_start=79846
loop_xfade=23930
lovel=1
offset=2102
sample=Soprano_sustain_MF_C3.opus
tune=+11
</region>

<region>
hikey=B5
hivel=127
lokey=A#5
loop_end=273819
loop_mode=loop_continuous
loop_start=78832
loop_xfade=23627
lovel=1
offset=2964
pitch_keycenter=A#5
sample=Soprano_sustain_MF_A#4.opus
tune=-3
</region>

<region>
hikey=B4
hivel=127
lokey=A#4
loop_end=276604
loop_mode=loop_continuous
loop_start=79634
loop_xfade=23867
lovel=1
offset=950
pitch_keycenter=A#4
sample=Soprano_sustain_MF_A#3.opus
tune=+4
</region>

<region>
hikey=B3
hivel=127
lokey=A#3
loop_end=273402
loop_mode=loop_continuous
loop_start=78712
loop_xfade=23591
lovel=1
offset=3513
pitch_keycenter=A#3
sample=Soprano_sustain_MF_A#2.opus
</region>
</group>